<svg width="18" height="22" viewBox="0 0 18 22" fill="none" xmlns="http://www.w3.org/2000/svg">
<path d="M8.99544 0C6.60981 0.00035093 4.32198 0.963874 2.63509 2.67868C0.948187 4.39349 0.000345219 6.71916 0 9.14426C0 13.9301 4.28875 17.8094 8.99544 17.8094V21.1765C14.4599 18.36 18 13.8229 18 9.14426C18 4.09368 13.9638 0 8.99544 0ZM7.69736 10.5882C7.69736 11.6841 7.11537 12.5735 6.39537 12.5735V10.5882H3.79139V6.61765H7.69736V10.5882ZM14.2073 10.5882C14.2073 11.6841 13.6253 12.5735 12.9053 12.5735V10.5882H10.3013V6.61765H14.2073V10.5882Z" fill="#252525"/>
</svg>
