<svg width="20" height="20" viewBox="0 0 20 20" fill="none" xmlns="http://www.w3.org/2000/svg">
<path d="M19.2921 11.6695C19.2858 11.7047 19.2813 11.7404 19.2747 11.7756L19.2405 11.5736C19.2592 11.6051 19.2747 11.6378 19.2921 11.6695C19.3963 11.1034 19.449 10.5291 19.4495 9.95348C19.4495 8.67556 19.1999 7.4357 18.7068 6.2686C18.231 5.1412 17.5504 4.12868 16.6826 3.25941C15.816 2.39013 14.8052 1.70778 13.6812 1.23093C12.5172 0.737243 11.2804 0.487031 10.0055 0.487031C9.40477 0.487031 8.80289 0.543574 8.21727 0.656267C8.21602 0.65658 8.21445 0.65658 8.21281 0.656893C8.24578 0.674357 8.27906 0.689941 8.31133 0.708032L8.11273 0.676863C8.14602 0.670598 8.17961 0.66355 8.21281 0.656893C7.40937 0.228675 6.50562 0 5.59094 0C4.09766 0 2.69352 0.582887 1.6375 1.64176C0.581797 2.70033 0 4.10777 0 5.60474C0.00050694 6.55564 0.242594 7.49075 0.703437 8.3219C0.709453 8.2876 0.713594 8.25298 0.720234 8.21868L0.754453 8.41713C0.736719 8.38604 0.721172 8.35362 0.703437 8.3219C0.609443 8.86067 0.561872 9.40654 0.56125 9.95348C0.56125 11.2317 0.810859 12.4713 1.30398 13.6387C1.77906 14.7664 2.46008 15.7782 3.32695 16.6475C4.19477 17.5168 5.20422 18.2001 6.32953 18.6757C7.49359 19.1703 8.7307 19.4209 10.0055 19.4209C10.5605 19.4209 11.1166 19.37 11.6595 19.2736C11.6278 19.2558 11.5955 19.2396 11.5632 19.2209L11.765 19.2564C11.7302 19.2631 11.6949 19.2672 11.6595 19.2736C12.4984 19.7495 13.446 19.9998 14.41 20C15.903 20 17.3065 19.418 18.3625 18.3589C19.4187 17.3009 20 15.8932 20 14.3962C19.9995 13.4417 19.7558 12.5031 19.2921 11.6695ZM10.0432 15.7513C6.68812 15.7513 5.18711 14.0978 5.18711 12.8586C5.18711 12.2229 5.65523 11.7775 6.30039 11.7775C7.73617 11.7775 7.3643 13.8441 10.0432 13.8441C11.4147 13.8441 12.172 13.0976 12.172 12.3337C12.172 11.8744 11.9459 11.365 11.0428 11.1418L8.05859 10.3951C5.65523 9.7909 5.21906 8.48855 5.21906 7.26428C5.21906 4.72246 7.60656 3.76805 9.84875 3.76805C11.9141 3.76805 14.3489 4.91229 14.3489 6.43721C14.3489 7.09066 13.7845 7.47063 13.1395 7.47063C11.9141 7.47063 12.1397 5.77045 9.67141 5.77045C8.44656 5.77045 7.76812 6.32647 7.76812 7.12206C7.76812 7.91616 8.73547 8.16981 9.57539 8.36153L11.7843 8.85302C14.2038 9.39338 14.8173 10.8094 14.8173 12.1432C14.8173 14.2089 13.2355 15.7513 10.0432 15.7513ZM11.5632 19.2209C11.5955 19.2396 11.6278 19.2558 11.6595 19.2736C11.6949 19.2672 11.7302 19.2631 11.765 19.2564L11.5632 19.2209ZM19.2747 11.7756C19.2813 11.7404 19.2858 11.7047 19.2921 11.6695C19.2747 11.6378 19.2592 11.6051 19.2405 11.5736L19.2747 11.7756ZM0.720234 8.21868C0.713594 8.25298 0.709453 8.2876 0.703437 8.3219C0.721172 8.35362 0.736719 8.38604 0.754453 8.41713L0.720234 8.21868ZM8.31133 0.708032C8.27906 0.689941 8.24578 0.674357 8.21281 0.656893C8.17961 0.66355 8.14602 0.670598 8.11273 0.676863L8.31133 0.708032Z" fill="#252525"/>
</svg>
