<svg width="40" height="32" viewBox="0 0 40 32" fill="none" xmlns="http://www.w3.org/2000/svg">
<path d="M0 18.7288V24.9725C0 28.4175 8.95125 31.2087 20 31.2087V24.9725C8.95125 24.9725 0 22.1725 0 18.7362V18.7288ZM35.6387 22.615L20 18.7288V24.9725L35.6387 28.8587C38.3675 27.79 40 26.4438 40 24.9725V18.7288C40 20.2 38.3662 21.5475 35.6387 22.615ZM20 12.4925V18.7288C8.95125 18.7288 0 15.935 0 12.4925V6.23625C0 2.7975 8.95125 0 20 0C31.0413 0 40 2.79875 40 6.24375V12.4937C40 13.965 38.3662 15.305 35.6387 16.38L20 12.4862V12.4925Z" fill="#4B4B4B"/>
</svg>
