<svg width="30" height="40" viewBox="0 0 30 40" fill="none" xmlns="http://www.w3.org/2000/svg">
<path d="M3.46667 0H5.27001V1.78167H6.92001V0H8.72334V5.39333H6.92001V3.58833H5.27001V5.39333H3.46834V0H3.46667Z" fill="#4B4B4B"/>
<path d="M11.0933 1.78833H9.50665V0H14.485V1.78833H12.8967V5.39333H11.0933V1.78833Z" fill="#4B4B4B"/>
<path d="M15.275 0H17.155L18.3116 1.895L19.4666 0H21.3466V5.39333H19.5516V2.72L18.3116 4.63833H18.28L17.0383 2.72167V5.39333H15.275V0Z" fill="#4B4B4B"/>
<path d="M22.2433 0H24.0483V3.61167H26.5817V5.395H22.2433V0Z" fill="#4B4B4B"/>
<path fill-rule="evenodd" clip-rule="evenodd" d="M3.41 36.7867L0 7.86169H30L26.5883 36.7834L14.9833 40L3.41 36.7867ZM10.305 20.9534L9.98167 17.32H23.5567L23.8733 13.7734H6.10667L7.06333 24.5017H19.3583L18.9467 29.1017L14.99 30.1717H14.9867L11.0367 29.105L10.7833 26.2767H7.22L7.71667 31.8467L14.9833 33.8634L22.2617 31.8467L23.1483 21.9067L23.235 20.955H10.305V20.9534Z" fill="#4B4B4B"/>
</svg>
