<svg width="1141" height="178" viewBox="0 0 1141 178" fill="none" xmlns="http://www.w3.org/2000/svg">
<path d="M142.174 91.928V97.976H145.726C146.622 97.976 147.382 97.688 148.006 97.112C148.63 96.52 148.942 95.792 148.942 94.928C148.942 94.128 148.646 93.432 148.054 92.84C147.478 92.232 146.75 91.928 145.87 91.928H142.174ZM142.174 107H139.966V89.816H145.822C147.31 89.816 148.574 90.312 149.614 91.304C150.67 92.28 151.198 93.488 151.198 94.928C151.198 96.112 150.806 97.168 150.022 98.096C149.254 99.008 148.278 99.592 147.094 99.848L147.046 99.92L151.87 106.904V107H149.254L144.622 100.04H142.174V107ZM158.503 107.384C156.775 107.384 155.351 106.792 154.231 105.608C153.111 104.424 152.551 102.928 152.551 101.12C152.551 99.328 153.095 97.84 154.183 96.656C155.271 95.456 156.663 94.856 158.359 94.856C160.103 94.856 161.487 95.424 162.511 96.56C163.551 97.68 164.071 99.256 164.071 101.288L164.047 101.528H154.807C154.839 102.68 155.223 103.608 155.959 104.312C156.695 105.016 157.575 105.368 158.599 105.368C160.007 105.368 161.111 104.664 161.911 103.256L163.879 104.216C163.351 105.208 162.615 105.984 161.671 106.544C160.743 107.104 159.687 107.384 158.503 107.384ZM154.975 99.704H161.719C161.655 98.888 161.319 98.216 160.711 97.688C160.119 97.144 159.319 96.872 158.311 96.872C157.479 96.872 156.759 97.128 156.151 97.64C155.559 98.152 155.167 98.84 154.975 99.704ZM177.343 112.184H175.135V107L175.231 105.368H175.135C174.751 105.976 174.199 106.464 173.479 106.832C172.775 107.2 171.991 107.384 171.127 107.384C169.591 107.384 168.271 106.776 167.167 105.56C166.079 104.328 165.535 102.848 165.535 101.12C165.535 99.392 166.079 97.912 167.167 96.68C168.271 95.464 169.591 94.856 171.127 94.856C171.991 94.856 172.775 95.04 173.479 95.408C174.199 95.776 174.751 96.264 175.135 96.872H175.231V95.24H177.343V112.184ZM171.487 105.368C172.575 105.368 173.463 104.976 174.151 104.192C174.871 103.408 175.231 102.384 175.231 101.12C175.231 99.888 174.871 98.872 174.151 98.072C173.447 97.272 172.559 96.872 171.487 96.872C170.431 96.872 169.543 97.272 168.823 98.072C168.103 98.872 167.743 99.888 167.743 101.12C167.743 102.368 168.103 103.384 168.823 104.168C169.543 104.968 170.431 105.368 171.487 105.368ZM190.262 107H188.15V105.368H188.054C187.718 105.944 187.198 106.424 186.494 106.808C185.806 107.192 185.086 107.384 184.334 107.384C182.894 107.384 181.782 106.976 180.998 106.16C180.23 105.328 179.846 104.152 179.846 102.632V95.24H182.054V102.488C182.102 104.408 183.07 105.368 184.958 105.368C185.838 105.368 186.574 105.016 187.166 104.312C187.758 103.592 188.054 102.736 188.054 101.744V95.24H190.262V107ZM198.112 107.384C196.384 107.384 194.96 106.792 193.84 105.608C192.72 104.424 192.16 102.928 192.16 101.12C192.16 99.328 192.704 97.84 193.792 96.656C194.88 95.456 196.272 94.856 197.968 94.856C199.712 94.856 201.096 95.424 202.12 96.56C203.16 97.68 203.68 99.256 203.68 101.288L203.656 101.528H194.416C194.448 102.68 194.832 103.608 195.568 104.312C196.304 105.016 197.184 105.368 198.208 105.368C199.616 105.368 200.72 104.664 201.52 103.256L203.488 104.216C202.96 105.208 202.224 105.984 201.28 106.544C200.352 107.104 199.296 107.384 198.112 107.384ZM194.584 99.704H201.328C201.264 98.888 200.928 98.216 200.32 97.688C199.728 97.144 198.928 96.872 197.92 96.872C197.088 96.872 196.368 97.128 195.76 97.64C195.168 98.152 194.776 98.84 194.584 99.704ZM214.817 103.736C214.817 104.76 214.369 105.624 213.473 106.328C212.577 107.032 211.449 107.384 210.089 107.384C208.905 107.384 207.865 107.08 206.969 106.472C206.073 105.848 205.433 105.032 205.049 104.024L207.017 103.184C207.305 103.888 207.721 104.44 208.265 104.84C208.825 105.224 209.433 105.416 210.089 105.416C210.793 105.416 211.377 105.264 211.841 104.96C212.321 104.656 212.561 104.296 212.561 103.88C212.561 103.128 211.985 102.576 210.833 102.224L208.817 101.72C206.529 101.144 205.385 100.04 205.385 98.408C205.385 97.336 205.817 96.48 206.681 95.84C207.561 95.184 208.681 94.856 210.041 94.856C211.081 94.856 212.017 95.104 212.849 95.6C213.697 96.096 214.289 96.76 214.625 97.592L212.657 98.408C212.433 97.912 212.065 97.528 211.553 97.256C211.057 96.968 210.497 96.824 209.873 96.824C209.297 96.824 208.777 96.968 208.313 97.256C207.865 97.544 207.641 97.896 207.641 98.312C207.641 98.984 208.273 99.464 209.537 99.752L211.313 100.208C213.649 100.784 214.817 101.96 214.817 103.736ZM221.277 107.192C220.317 107.192 219.517 106.896 218.877 106.304C218.253 105.712 217.933 104.888 217.917 103.832V97.256H215.853V95.24H217.917V91.64H220.125V95.24H223.005V97.256H220.125V103.112C220.125 103.896 220.277 104.432 220.581 104.72C220.885 104.992 221.229 105.128 221.613 105.128C221.789 105.128 221.957 105.112 222.117 105.08C222.293 105.032 222.453 104.976 222.597 104.912L223.293 106.88C222.717 107.088 222.045 107.192 221.277 107.192Z" fill="#0B132A"/>
<path d="M23.8244 128.315H27.9409V140H29.5261V128.315H33.6426V126.909H23.8244V128.315ZM38.5772 140.205C40.5716 140.205 42.0289 139.207 42.4892 137.724L41.0318 137.315C40.6483 138.338 39.7598 138.849 38.5772 138.849C36.8066 138.849 35.5858 137.705 35.5154 135.602H42.6426V134.963C42.6426 131.307 40.4693 130.054 38.4238 130.054C35.7647 130.054 34.0005 132.151 34.0005 135.168C34.0005 138.185 35.7392 140.205 38.5772 140.205ZM35.5154 134.298C35.6177 132.771 36.698 131.409 38.4238 131.409C40.0602 131.409 41.1085 132.636 41.1085 134.298H35.5154ZM46.4458 126.909H44.9373V140H46.4458V126.909ZM50.7173 126.909H49.2088V140H50.7173V126.909ZM64.7303 135.986C64.7303 137.827 63.324 138.67 62.199 138.67C60.9462 138.67 60.0513 137.75 60.0513 136.318V130.182H58.5428V136.42C58.5428 138.926 59.8723 140.128 61.7132 140.128C63.1962 140.128 64.1678 139.335 64.628 138.338H64.7303V140H66.2388V130.182H64.7303V135.986ZM75.9563 132.381C75.4833 130.987 74.4222 130.054 72.479 130.054C70.408 130.054 68.8739 131.23 68.8739 132.892C68.8739 134.247 69.6793 135.155 71.4819 135.577L73.1183 135.96C74.109 136.19 74.5756 136.663 74.5756 137.341C74.5756 138.185 73.6808 138.875 72.2745 138.875C71.0408 138.875 70.2674 138.344 69.9989 137.29L68.5671 137.648C68.9187 139.316 70.293 140.205 72.3001 140.205C74.582 140.205 76.1353 138.958 76.1353 137.264C76.1353 135.896 75.2788 135.033 73.5273 134.605L72.07 134.247C70.9066 133.96 70.3825 133.57 70.3825 132.815C70.3825 131.972 71.2773 131.358 72.479 131.358C73.7958 131.358 74.3391 132.087 74.6012 132.764L75.9563 132.381ZM83.4686 140H84.9771V133.864C84.9771 132.425 86.0254 131.409 87.2015 131.409C88.3457 131.409 89.1447 132.157 89.1447 133.276V140H90.6788V133.608C90.6788 132.342 91.4714 131.409 92.8521 131.409C93.926 131.409 94.8464 131.978 94.8464 133.429V140H96.3549V133.429C96.3549 131.121 95.1149 130.054 93.3635 130.054C91.9572 130.054 90.9281 130.7 90.4231 131.716H90.3208C89.8351 130.668 88.9785 130.054 87.6873 130.054C86.4089 130.054 85.4629 130.668 85.0538 131.716H84.926V130.182H83.4686V140ZM103.102 140.205C105.761 140.205 107.551 138.185 107.551 135.142C107.551 132.074 105.761 130.054 103.102 130.054C100.443 130.054 98.6529 132.074 98.6529 135.142C98.6529 138.185 100.443 140.205 103.102 140.205ZM103.102 138.849C101.082 138.849 100.161 137.111 100.161 135.142C100.161 133.173 101.082 131.409 103.102 131.409C105.122 131.409 106.042 133.173 106.042 135.142C106.042 137.111 105.122 138.849 103.102 138.849ZM109.853 140H111.362V133.787C111.362 132.457 112.41 131.486 113.842 131.486C114.245 131.486 114.66 131.562 114.762 131.588V130.054C114.59 130.041 114.194 130.028 113.97 130.028C112.794 130.028 111.771 130.693 111.413 131.665H111.311V130.182H109.853V140ZM120.368 140.205C122.363 140.205 123.82 139.207 124.28 137.724L122.823 137.315C122.439 138.338 121.551 138.849 120.368 138.849C118.598 138.849 117.377 137.705 117.306 135.602H124.434V134.963C124.434 131.307 122.26 130.054 120.215 130.054C117.556 130.054 115.792 132.151 115.792 135.168C115.792 138.185 117.53 140.205 120.368 140.205ZM117.306 134.298C117.409 132.771 118.489 131.409 120.215 131.409C121.851 131.409 122.9 132.636 122.9 134.298H117.306ZM134.68 140.23C136.393 140.23 137.288 139.31 137.595 138.67H137.672V140H139.18V133.531C139.18 130.412 136.802 130.054 135.549 130.054C134.066 130.054 132.379 130.565 131.612 132.355L133.044 132.866C133.376 132.151 134.162 131.384 135.6 131.384C136.988 131.384 137.672 132.119 137.672 133.378V133.429C137.672 134.158 136.93 134.094 135.14 134.324C133.319 134.56 131.331 134.963 131.331 137.213C131.331 139.131 132.814 140.23 134.68 140.23ZM134.91 138.875C133.708 138.875 132.839 138.338 132.839 137.29C132.839 136.139 133.887 135.781 135.064 135.628C135.703 135.551 137.416 135.372 137.672 135.065V136.446C137.672 137.673 136.7 138.875 134.91 138.875ZM142.138 140H143.595V138.491H143.774C144.107 139.028 144.746 140.205 146.638 140.205C149.093 140.205 150.806 138.236 150.806 135.116C150.806 132.023 149.093 130.054 146.612 130.054C144.695 130.054 144.107 131.23 143.774 131.741H143.646V126.909H142.138V140ZM143.621 135.091C143.621 132.892 144.593 131.409 146.433 131.409C148.351 131.409 149.297 133.02 149.297 135.091C149.297 137.188 148.325 138.849 146.433 138.849C144.618 138.849 143.621 137.315 143.621 135.091ZM157.102 140.205C159.761 140.205 161.551 138.185 161.551 135.142C161.551 132.074 159.761 130.054 157.102 130.054C154.443 130.054 152.653 132.074 152.653 135.142C152.653 138.185 154.443 140.205 157.102 140.205ZM157.102 138.849C155.082 138.849 154.161 137.111 154.161 135.142C154.161 133.173 155.082 131.409 157.102 131.409C159.122 131.409 160.042 133.173 160.042 135.142C160.042 137.111 159.122 138.849 157.102 138.849ZM170.041 135.986C170.041 137.827 168.635 138.67 167.51 138.67C166.257 138.67 165.362 137.75 165.362 136.318V130.182H163.853V136.42C163.853 138.926 165.183 140.128 167.024 140.128C168.507 140.128 169.478 139.335 169.939 138.338H170.041V140H171.549V130.182H170.041V135.986ZM178.582 130.182H176.486V127.83H174.977V130.182H173.494V131.46H174.977V137.597C174.977 139.31 176.358 140.128 177.636 140.128C178.199 140.128 178.557 140.026 178.761 139.949L178.454 138.594C178.327 138.619 178.122 138.67 177.79 138.67C177.125 138.67 176.486 138.466 176.486 137.188V131.46H178.582V130.182ZM186.885 143.682C188.247 143.682 189.206 142.96 189.775 141.432L193.955 130.207L192.306 130.182L189.596 138.006H189.493L186.783 130.182H185.147L188.778 140.051L188.496 140.818C187.947 142.314 187.269 142.455 186.17 142.173L185.786 143.503C185.939 143.58 186.374 143.682 186.885 143.682ZM199.588 140.205C202.247 140.205 204.037 138.185 204.037 135.142C204.037 132.074 202.247 130.054 199.588 130.054C196.929 130.054 195.139 132.074 195.139 135.142C195.139 138.185 196.929 140.205 199.588 140.205ZM199.588 138.849C197.568 138.849 196.648 137.111 196.648 135.142C196.648 133.173 197.568 131.409 199.588 131.409C201.608 131.409 202.528 133.173 202.528 135.142C202.528 137.111 201.608 138.849 199.588 138.849ZM212.527 135.986C212.527 137.827 211.121 138.67 209.996 138.67C208.743 138.67 207.848 137.75 207.848 136.318V130.182H206.34V136.42C206.34 138.926 207.669 140.128 209.51 140.128C210.993 140.128 211.965 139.335 212.425 138.338H212.527V140H214.036V130.182H212.527V135.986ZM216.799 140H218.307V133.787C218.307 132.457 219.355 131.486 220.787 131.486C221.19 131.486 221.605 131.562 221.708 131.588V130.054C221.535 130.041 221.139 130.028 220.915 130.028C219.739 130.028 218.716 130.693 218.358 131.665H218.256V130.182H216.799V140ZM228.558 140H230.067V133.787C230.067 132.457 231.115 131.486 232.547 131.486C232.95 131.486 233.365 131.562 233.468 131.588V130.054C233.295 130.041 232.899 130.028 232.675 130.028C231.499 130.028 230.476 130.693 230.118 131.665H230.016V130.182H228.558V140ZM239.073 140.205C241.068 140.205 242.525 139.207 242.985 137.724L241.528 137.315C241.144 138.338 240.256 138.849 239.073 138.849C237.303 138.849 236.082 137.705 236.012 135.602H243.139V134.963C243.139 131.307 240.965 130.054 238.92 130.054C236.261 130.054 234.497 132.151 234.497 135.168C234.497 138.185 236.235 140.205 239.073 140.205ZM236.012 134.298C236.114 132.771 237.194 131.409 238.92 131.409C240.556 131.409 241.605 132.636 241.605 134.298H236.012ZM253.641 143.682V130.182H252.183V131.741H252.004C251.672 131.23 251.084 130.054 249.166 130.054C246.686 130.054 244.973 132.023 244.973 135.116C244.973 138.236 246.686 140.205 249.141 140.205C251.033 140.205 251.672 139.028 252.004 138.491H252.132V143.682H253.641ZM252.158 135.091C252.158 137.315 251.161 138.849 249.345 138.849C247.453 138.849 246.482 137.188 246.482 135.091C246.482 133.02 247.428 131.409 249.345 131.409C251.186 131.409 252.158 132.892 252.158 135.091ZM262.59 135.986C262.59 137.827 261.183 138.67 260.058 138.67C258.806 138.67 257.911 137.75 257.911 136.318V130.182H256.402V136.42C256.402 138.926 257.732 140.128 259.573 140.128C261.056 140.128 262.027 139.335 262.487 138.338H262.59V140H264.098V130.182H262.59V135.986ZM266.861 140H268.37V130.182H266.861V140ZM267.628 128.545C268.216 128.545 268.702 128.085 268.702 127.523C268.702 126.96 268.216 126.5 267.628 126.5C267.04 126.5 266.554 126.96 266.554 127.523C266.554 128.085 267.04 128.545 267.628 128.545ZM271.133 140H272.641V133.787C272.641 132.457 273.689 131.486 275.121 131.486C275.524 131.486 275.939 131.562 276.042 131.588V130.054C275.869 130.041 275.473 130.028 275.249 130.028C274.073 130.028 273.05 130.693 272.692 131.665H272.59V130.182H271.133V140ZM281.648 140.205C283.642 140.205 285.099 139.207 285.559 137.724L284.102 137.315C283.719 138.338 282.83 138.849 281.648 138.849C279.877 138.849 278.656 137.705 278.586 135.602H285.713V134.963C285.713 131.307 283.54 130.054 281.494 130.054C278.835 130.054 277.071 132.151 277.071 135.168C277.071 138.185 278.809 140.205 281.648 140.205ZM278.586 134.298C278.688 132.771 279.768 131.409 281.494 131.409C283.131 131.409 284.179 132.636 284.179 134.298H278.586ZM288.008 140H289.516V133.864C289.516 132.425 290.564 131.409 291.741 131.409C292.885 131.409 293.684 132.157 293.684 133.276V140H295.218V133.608C295.218 132.342 296.01 131.409 297.391 131.409C298.465 131.409 299.385 131.978 299.385 133.429V140H300.894V133.429C300.894 131.121 299.654 130.054 297.903 130.054C296.496 130.054 295.467 130.7 294.962 131.716H294.86C294.374 130.668 293.518 130.054 292.226 130.054C290.948 130.054 290.002 130.668 289.593 131.716H289.465V130.182H288.008V140ZM307.769 140.205C309.763 140.205 311.22 139.207 311.681 137.724L310.223 137.315C309.84 138.338 308.951 138.849 307.769 138.849C305.998 138.849 304.777 137.705 304.707 135.602H311.834V134.963C311.834 131.307 309.661 130.054 307.615 130.054C304.956 130.054 303.192 132.151 303.192 135.168C303.192 138.185 304.931 140.205 307.769 140.205ZM304.707 134.298C304.809 132.771 305.889 131.409 307.615 131.409C309.252 131.409 310.3 132.636 310.3 134.298H304.707ZM315.637 134.094C315.637 132.381 316.698 131.409 318.143 131.409C319.543 131.409 320.393 132.323 320.393 133.864V140H321.901V133.761C321.901 131.256 320.566 130.054 318.578 130.054C317.095 130.054 316.174 130.719 315.714 131.716H315.586V130.182H314.129V140H315.637V134.094ZM328.928 130.182H326.831V127.83H325.323V130.182H323.84V131.46H325.323V137.597C325.323 139.31 326.703 140.128 327.982 140.128C328.544 140.128 328.902 140.026 329.107 139.949L328.8 138.594C328.672 138.619 328.468 138.67 328.135 138.67C327.471 138.67 326.831 138.466 326.831 137.188V131.46H328.928V130.182ZM337.976 132.381C337.503 130.987 336.442 130.054 334.499 130.054C332.428 130.054 330.893 131.23 330.893 132.892C330.893 134.247 331.699 135.155 333.501 135.577L335.138 135.96C336.129 136.19 336.595 136.663 336.595 137.341C336.595 138.185 335.7 138.875 334.294 138.875C333.06 138.875 332.287 138.344 332.018 137.29L330.587 137.648C330.938 139.316 332.312 140.205 334.32 140.205C336.602 140.205 338.155 138.958 338.155 137.264C338.155 135.896 337.298 135.033 335.547 134.605L334.089 134.247C332.926 133.96 332.402 133.57 332.402 132.815C332.402 131.972 333.297 131.358 334.499 131.358C335.815 131.358 336.359 132.087 336.621 132.764L337.976 132.381ZM99.8138 166.23C101.527 166.23 102.422 165.31 102.729 164.67H102.805V166H104.314V159.531C104.314 156.412 101.936 156.054 100.683 156.054C99.2002 156.054 97.5127 156.565 96.7456 158.355L98.1775 158.866C98.5099 158.151 99.2961 157.384 100.734 157.384C102.121 157.384 102.805 158.119 102.805 159.378V159.429C102.805 160.158 102.064 160.094 100.274 160.324C98.4523 160.56 96.4644 160.963 96.4644 163.213C96.4644 165.131 97.9474 166.23 99.8138 166.23ZM100.044 164.875C98.8422 164.875 97.9729 164.338 97.9729 163.29C97.9729 162.139 99.0212 161.781 100.197 161.628C100.837 161.551 102.55 161.372 102.805 161.065V162.446C102.805 163.673 101.834 164.875 100.044 164.875ZM108.576 160.094C108.576 158.381 109.637 157.409 111.081 157.409C112.481 157.409 113.331 158.323 113.331 159.864V166H114.84V159.761C114.84 157.256 113.504 156.054 111.516 156.054C110.033 156.054 109.113 156.719 108.652 157.716H108.525V156.182H107.067V166H108.576V160.094ZM121.304 166.205C123.196 166.205 123.835 165.028 124.168 164.491H124.347V166H125.804V152.909H124.295V157.741H124.168C123.835 157.23 123.247 156.054 121.329 156.054C118.849 156.054 117.136 158.023 117.136 161.116C117.136 164.236 118.849 166.205 121.304 166.205ZM121.508 164.849C119.616 164.849 118.645 163.188 118.645 161.091C118.645 159.02 119.591 157.409 121.508 157.409C123.349 157.409 124.321 158.892 124.321 161.091C124.321 163.315 123.324 164.849 121.508 164.849ZM138.109 156.182H136.012V153.83H134.503V156.182H133.021V157.46H134.503V163.597C134.503 165.31 135.884 166.128 137.163 166.128C137.725 166.128 138.083 166.026 138.288 165.949L137.981 164.594C137.853 164.619 137.648 164.67 137.316 164.67C136.651 164.67 136.012 164.466 136.012 163.188V157.46H138.109V156.182ZM144.389 166.205C146.383 166.205 147.84 165.207 148.301 163.724L146.843 163.315C146.46 164.338 145.571 164.849 144.389 164.849C142.618 164.849 141.397 163.705 141.327 161.602H148.454V160.963C148.454 157.307 146.281 156.054 144.235 156.054C141.576 156.054 139.812 158.151 139.812 161.168C139.812 164.185 141.551 166.205 144.389 166.205ZM141.327 160.298C141.429 158.771 142.509 157.409 144.235 157.409C145.872 157.409 146.92 158.636 146.92 160.298H141.327ZM154.737 166.205C156.911 166.205 158.343 164.875 158.598 163.136H157.09C156.809 164.21 155.914 164.849 154.737 164.849C152.948 164.849 151.797 163.366 151.797 161.091C151.797 158.866 152.973 157.409 154.737 157.409C156.067 157.409 156.86 158.227 157.09 159.122H158.598C158.343 157.281 156.783 156.054 154.712 156.054C152.053 156.054 150.289 158.151 150.289 161.142C150.289 164.082 151.976 166.205 154.737 166.205ZM162.312 160.094C162.312 158.381 163.405 157.409 164.894 157.409C166.313 157.409 167.17 158.304 167.17 159.864V166H168.679V159.761C168.679 157.237 167.336 156.054 165.329 156.054C163.782 156.054 162.9 156.7 162.44 157.716H162.312V152.909H160.804V166H162.312V160.094ZM172.947 160.094C172.947 158.381 174.008 157.409 175.453 157.409C176.852 157.409 177.703 158.323 177.703 159.864V166H179.211V159.761C179.211 157.256 177.875 156.054 175.887 156.054C174.404 156.054 173.484 156.719 173.024 157.716H172.896V156.182H171.438V166H172.947V160.094ZM181.968 166H183.476V156.182H181.968V166ZM182.735 154.545C183.323 154.545 183.809 154.085 183.809 153.523C183.809 152.96 183.323 152.5 182.735 152.5C182.147 152.5 181.661 152.96 181.661 153.523C181.661 154.085 182.147 154.545 182.735 154.545ZM190.228 166.205C192.401 166.205 193.833 164.875 194.089 163.136H192.58C192.299 164.21 191.404 164.849 190.228 164.849C188.438 164.849 187.287 163.366 187.287 161.091C187.287 158.866 188.464 157.409 190.228 157.409C191.557 157.409 192.35 158.227 192.58 159.122H194.089C193.833 157.281 192.273 156.054 190.202 156.054C187.543 156.054 185.779 158.151 185.779 161.142C185.779 164.082 187.466 166.205 190.228 166.205ZM199.183 166.23C200.896 166.23 201.791 165.31 202.098 164.67H202.174V166H203.683V159.531C203.683 156.412 201.305 156.054 200.052 156.054C198.569 156.054 196.882 156.565 196.115 158.355L197.547 158.866C197.879 158.151 198.665 157.384 200.103 157.384C201.491 157.384 202.174 158.119 202.174 159.378V159.429C202.174 160.158 201.433 160.094 199.643 160.324C197.821 160.56 195.834 160.963 195.834 163.213C195.834 165.131 197.316 166.23 199.183 166.23ZM199.413 164.875C198.211 164.875 197.342 164.338 197.342 163.29C197.342 162.139 198.39 161.781 199.566 161.628C200.206 161.551 201.919 161.372 202.174 161.065V162.446C202.174 163.673 201.203 164.875 199.413 164.875ZM207.945 152.909H206.436V166H207.945V152.909ZM217.279 160.094C217.279 158.381 218.34 157.409 219.785 157.409C221.184 157.409 222.035 158.323 222.035 159.864V166H223.543V159.761C223.543 157.256 222.207 156.054 220.219 156.054C218.736 156.054 217.816 156.719 217.356 157.716H217.228V156.182H215.77V166H217.279V160.094ZM230.416 166.205C232.41 166.205 233.868 165.207 234.328 163.724L232.871 163.315C232.487 164.338 231.599 164.849 230.416 164.849C228.646 164.849 227.425 163.705 227.354 161.602H234.481V160.963C234.481 157.307 232.308 156.054 230.263 156.054C227.604 156.054 225.839 158.151 225.839 161.168C225.839 164.185 227.578 166.205 230.416 166.205ZM227.354 160.298C227.457 158.771 228.537 157.409 230.263 157.409C231.899 157.409 232.947 158.636 232.947 160.298H227.354ZM240.893 166.205C242.887 166.205 244.344 165.207 244.805 163.724L243.347 163.315C242.964 164.338 242.075 164.849 240.893 164.849C239.122 164.849 237.901 163.705 237.831 161.602H244.958V160.963C244.958 157.307 242.785 156.054 240.739 156.054C238.08 156.054 236.316 158.151 236.316 161.168C236.316 164.185 238.055 166.205 240.893 166.205ZM237.831 160.298C237.933 158.771 239.013 157.409 240.739 157.409C242.376 157.409 243.424 158.636 243.424 160.298H237.831ZM250.96 166.205C252.852 166.205 253.491 165.028 253.824 164.491H254.003V166H255.46V152.909H253.952V157.741H253.824C253.491 157.23 252.903 156.054 250.986 156.054C248.506 156.054 246.793 158.023 246.793 161.116C246.793 164.236 248.506 166.205 250.96 166.205ZM251.165 164.849C249.273 164.849 248.301 163.188 248.301 161.091C248.301 159.02 249.247 157.409 251.165 157.409C253.006 157.409 253.977 158.892 253.977 161.091C253.977 163.315 252.98 164.849 251.165 164.849ZM265.387 158.381C264.914 156.987 263.853 156.054 261.91 156.054C259.839 156.054 258.305 157.23 258.305 158.892C258.305 160.247 259.11 161.155 260.913 161.577L262.549 161.96C263.54 162.19 264.006 162.663 264.006 163.341C264.006 164.185 263.111 164.875 261.705 164.875C260.472 164.875 259.698 164.344 259.43 163.29L257.998 163.648C258.349 165.316 259.724 166.205 261.731 166.205C264.013 166.205 265.566 164.958 265.566 163.264C265.566 161.896 264.709 161.033 262.958 160.605L261.501 160.247C260.337 159.96 259.813 159.57 259.813 158.815C259.813 157.972 260.708 157.358 261.91 157.358C263.226 157.358 263.77 158.087 264.032 158.764L265.387 158.381Z" fill="#747474"/>
<circle cx="181" cy="35" r="34.5" stroke="#00ABFF"/>
<path d="M181.365 26.5455H179.251L174.888 29.4432V31.5909L179.149 28.7614H179.251V44H181.365V26.5455Z" fill="#00ABFF"/>
<path d="M525.889 107H523.681V89.816H525.889V107ZM528.969 95.24H531.081V96.872H531.177C531.513 96.296 532.025 95.816 532.713 95.432C533.417 95.048 534.145 94.856 534.897 94.856C536.337 94.856 537.441 95.272 538.209 96.104C538.993 96.92 539.385 98.088 539.385 99.608V107H537.177V99.752C537.129 97.832 536.161 96.872 534.273 96.872C533.393 96.872 532.657 97.232 532.065 97.952C531.473 98.656 531.177 99.504 531.177 100.496V107H528.969V95.24ZM546.023 107.192C545.063 107.192 544.263 106.896 543.623 106.304C542.999 105.712 542.679 104.888 542.663 103.832V97.256H540.599V95.24H542.663V91.64H544.871V95.24H547.751V97.256H544.871V103.112C544.871 103.896 545.023 104.432 545.327 104.72C545.631 104.992 545.975 105.128 546.359 105.128C546.535 105.128 546.703 105.112 546.863 105.08C547.039 105.032 547.199 104.976 547.343 104.912L548.039 106.88C547.463 107.088 546.791 107.192 546.023 107.192ZM555.015 107.384C553.287 107.384 551.863 106.792 550.743 105.608C549.623 104.424 549.063 102.928 549.063 101.12C549.063 99.328 549.607 97.84 550.695 96.656C551.783 95.456 553.175 94.856 554.871 94.856C556.615 94.856 557.999 95.424 559.023 96.56C560.063 97.68 560.583 99.256 560.583 101.288L560.559 101.528H551.319C551.351 102.68 551.735 103.608 552.471 104.312C553.207 105.016 554.087 105.368 555.111 105.368C556.519 105.368 557.623 104.664 558.423 103.256L560.391 104.216C559.863 105.208 559.127 105.984 558.183 106.544C557.255 107.104 556.199 107.384 555.015 107.384ZM551.487 99.704H558.231C558.167 98.888 557.831 98.216 557.223 97.688C556.631 97.144 555.831 96.872 554.823 96.872C553.991 96.872 553.271 97.128 552.663 97.64C552.071 98.152 551.679 98.84 551.487 99.704ZM564.81 107H562.602V95.24H564.714V97.16H564.81C565.034 96.536 565.49 96.008 566.178 95.576C566.882 95.128 567.57 94.904 568.242 94.904C568.882 94.904 569.426 95 569.874 95.192L569.202 97.328C568.93 97.216 568.498 97.16 567.906 97.16C567.074 97.16 566.346 97.496 565.722 98.168C565.114 98.84 564.81 99.624 564.81 100.52V107ZM577.267 107H575.059L570.307 95.24H572.707L576.163 104.36H576.211L579.715 95.24H582.067L577.267 107ZM586.364 91.184C586.364 91.616 586.212 91.984 585.908 92.288C585.604 92.592 585.236 92.744 584.804 92.744C584.372 92.744 584.004 92.592 583.7 92.288C583.396 91.984 583.244 91.616 583.244 91.184C583.244 90.752 583.396 90.384 583.7 90.08C584.004 89.776 584.372 89.624 584.804 89.624C585.236 89.624 585.604 89.776 585.908 90.08C586.212 90.384 586.364 90.752 586.364 91.184ZM585.908 95.24V107H583.7V95.24H585.908ZM593.944 107.384C592.216 107.384 590.792 106.792 589.672 105.608C588.552 104.424 587.992 102.928 587.992 101.12C587.992 99.328 588.536 97.84 589.624 96.656C590.712 95.456 592.104 94.856 593.8 94.856C595.544 94.856 596.928 95.424 597.952 96.56C598.992 97.68 599.512 99.256 599.512 101.288L599.488 101.528H590.248C590.28 102.68 590.664 103.608 591.4 104.312C592.136 105.016 593.016 105.368 594.04 105.368C595.448 105.368 596.552 104.664 597.352 103.256L599.32 104.216C598.792 105.208 598.056 105.984 597.112 106.544C596.184 107.104 595.128 107.384 593.944 107.384ZM590.416 99.704H597.16C597.096 98.888 596.76 98.216 596.152 97.688C595.56 97.144 594.76 96.872 593.752 96.872C592.92 96.872 592.2 97.128 591.592 97.64C591 98.152 590.608 98.84 590.416 99.704ZM617.953 95.24L614.161 107H611.905L608.977 97.976L606.073 107H603.841L600.049 95.24H602.353L604.969 104.12H604.993L607.897 95.24H610.177L613.081 104.12H613.105L615.697 95.24H617.953Z" fill="#0B132A"/>
<path d="M416.406 126.909L421.136 134.605V140H422.721V134.605L427.451 126.909H425.636L422.005 133.02H421.852L418.221 126.909H416.406ZM431.897 140.205C434.556 140.205 436.346 138.185 436.346 135.142C436.346 132.074 434.556 130.054 431.897 130.054C429.238 130.054 427.448 132.074 427.448 135.142C427.448 138.185 429.238 140.205 431.897 140.205ZM431.897 138.849C429.877 138.849 428.956 137.111 428.956 135.142C428.956 133.173 429.877 131.409 431.897 131.409C433.917 131.409 434.837 133.173 434.837 135.142C434.837 137.111 433.917 138.849 431.897 138.849ZM444.836 135.986C444.836 137.827 443.43 138.67 442.305 138.67C441.052 138.67 440.157 137.75 440.157 136.318V130.182H438.648V136.42C438.648 138.926 439.978 140.128 441.819 140.128C443.302 140.128 444.273 139.335 444.733 138.338H444.836V140H446.344V130.182H444.836V135.986ZM454.17 140H455.678V130.182H454.17V140ZM454.937 128.545C455.525 128.545 456.011 128.085 456.011 127.523C456.011 126.96 455.525 126.5 454.937 126.5C454.349 126.5 453.863 126.96 453.863 127.523C453.863 128.085 454.349 128.545 454.937 128.545ZM459.95 134.094C459.95 132.381 461.011 131.409 462.455 131.409C463.855 131.409 464.705 132.323 464.705 133.864V140H466.214V133.761C466.214 131.256 464.878 130.054 462.89 130.054C461.407 130.054 460.487 130.719 460.026 131.716H459.899V130.182H458.441V140H459.95V134.094ZM473.24 130.182H471.144V127.83H469.635V130.182H468.152V131.46H469.635V137.597C469.635 139.31 471.016 140.128 472.294 140.128C472.857 140.128 473.215 140.026 473.419 139.949L473.113 138.594C472.985 138.619 472.78 138.67 472.448 138.67C471.783 138.67 471.144 138.466 471.144 137.188V131.46H473.24V130.182ZM479.521 140.205C481.515 140.205 482.972 139.207 483.433 137.724L481.975 137.315C481.592 138.338 480.703 138.849 479.521 138.849C477.75 138.849 476.529 137.705 476.459 135.602H483.586V134.963C483.586 131.307 481.413 130.054 479.367 130.054C476.708 130.054 474.944 132.151 474.944 135.168C474.944 138.185 476.683 140.205 479.521 140.205ZM476.459 134.298C476.561 132.771 477.641 131.409 479.367 131.409C481.004 131.409 482.052 132.636 482.052 134.298H476.459ZM485.881 140H487.389V133.787C487.389 132.457 488.438 131.486 489.869 131.486C490.272 131.486 490.688 131.562 490.79 131.588V130.054C490.617 130.041 490.221 130.028 489.997 130.028C488.821 130.028 487.798 130.693 487.44 131.665H487.338V130.182H485.881V140ZM500.905 130.182H499.269L496.559 138.006H496.456L493.746 130.182H492.11L495.74 140H497.275L500.905 130.182ZM502.896 140H504.405V130.182H502.896V140ZM503.663 128.545C504.251 128.545 504.737 128.085 504.737 127.523C504.737 126.96 504.251 126.5 503.663 126.5C503.075 126.5 502.589 126.96 502.589 127.523C502.589 128.085 503.075 128.545 503.663 128.545ZM511.284 140.205C513.279 140.205 514.736 139.207 515.196 137.724L513.739 137.315C513.355 138.338 512.467 138.849 511.284 138.849C509.514 138.849 508.293 137.705 508.222 135.602H515.35V134.963C515.35 131.307 513.176 130.054 511.131 130.054C508.472 130.054 506.708 132.151 506.708 135.168C506.708 138.185 508.446 140.205 511.284 140.205ZM508.222 134.298C508.325 132.771 509.405 131.409 511.131 131.409C512.767 131.409 513.816 132.636 513.816 134.298H508.222ZM519.869 140H521.352L523.499 132.457H523.653L525.801 140H527.284L530.275 130.182H528.69L526.568 137.673H526.465L524.394 130.182H522.784L520.687 137.699H520.585L518.463 130.182H516.877L519.869 140ZM541.32 140.205C543.494 140.205 544.926 138.875 545.181 137.136H543.673C543.392 138.21 542.497 138.849 541.32 138.849C539.531 138.849 538.38 137.366 538.38 135.091C538.38 132.866 539.556 131.409 541.32 131.409C542.65 131.409 543.443 132.227 543.673 133.122H545.181C544.926 131.281 543.366 130.054 541.295 130.054C538.636 130.054 536.872 132.151 536.872 135.142C536.872 138.082 538.559 140.205 541.32 140.205ZM550.276 140.23C551.989 140.23 552.884 139.31 553.191 138.67H553.267V140H554.776V133.531C554.776 130.412 552.398 130.054 551.145 130.054C549.662 130.054 547.975 130.565 547.208 132.355L548.639 132.866C548.972 132.151 549.758 131.384 551.196 131.384C552.583 131.384 553.267 132.119 553.267 133.378V133.429C553.267 134.158 552.526 134.094 550.736 134.324C548.914 134.56 546.926 134.963 546.926 137.213C546.926 139.131 548.409 140.23 550.276 140.23ZM550.506 138.875C549.304 138.875 548.435 138.338 548.435 137.29C548.435 136.139 549.483 135.781 550.659 135.628C551.298 135.551 553.012 135.372 553.267 135.065V136.446C553.267 137.673 552.296 138.875 550.506 138.875ZM559.038 134.094C559.038 132.381 560.099 131.409 561.543 131.409C562.943 131.409 563.793 132.323 563.793 133.864V140H565.302V133.761C565.302 131.256 563.966 130.054 561.978 130.054C560.495 130.054 559.575 130.719 559.114 131.716H558.987V130.182H557.529V140H559.038V134.094ZM571.766 140.205C573.658 140.205 574.297 139.028 574.629 138.491H574.808V140H576.266V126.909H574.757V131.741H574.629C574.297 131.23 573.709 130.054 571.791 130.054C569.311 130.054 567.598 132.023 567.598 135.116C567.598 138.236 569.311 140.205 571.766 140.205ZM571.97 138.849C570.078 138.849 569.107 137.188 569.107 135.091C569.107 133.02 570.053 131.409 571.97 131.409C573.811 131.409 574.783 132.892 574.783 135.091C574.783 137.315 573.786 138.849 571.97 138.849ZM579.238 140H580.747V130.182H579.238V140ZM580.005 128.545C580.593 128.545 581.079 128.085 581.079 127.523C581.079 126.96 580.593 126.5 580.005 126.5C579.417 126.5 578.931 126.96 578.931 127.523C578.931 128.085 579.417 128.545 580.005 128.545ZM587.217 140.205C589.109 140.205 589.748 139.028 590.081 138.491H590.26V140H591.717V126.909H590.208V131.741H590.081C589.748 131.23 589.16 130.054 587.243 130.054C584.762 130.054 583.049 132.023 583.049 135.116C583.049 138.236 584.762 140.205 587.217 140.205ZM587.422 138.849C585.529 138.849 584.558 137.188 584.558 135.091C584.558 133.02 585.504 131.409 587.422 131.409C589.262 131.409 590.234 132.892 590.234 135.091C590.234 137.315 589.237 138.849 587.422 138.849ZM597.578 140.23C599.292 140.23 600.186 139.31 600.493 138.67H600.57V140H602.078V133.531C602.078 130.412 599.701 130.054 598.448 130.054C596.965 130.054 595.277 130.565 594.51 132.355L595.942 132.866C596.275 132.151 597.061 131.384 598.499 131.384C599.886 131.384 600.57 132.119 600.57 133.378V133.429C600.57 134.158 599.828 134.094 598.039 134.324C596.217 134.56 594.229 134.963 594.229 137.213C594.229 139.131 595.712 140.23 597.578 140.23ZM597.809 138.875C596.607 138.875 595.738 138.338 595.738 137.29C595.738 136.139 596.786 135.781 597.962 135.628C598.601 135.551 600.314 135.372 600.57 135.065V136.446C600.57 137.673 599.598 138.875 597.809 138.875ZM609.102 130.182H607.005V127.83H605.497V130.182H604.014V131.46H605.497V137.597C605.497 139.31 606.877 140.128 608.156 140.128C608.718 140.128 609.076 140.026 609.281 139.949L608.974 138.594C608.846 138.619 608.642 138.67 608.309 138.67C607.644 138.67 607.005 138.466 607.005 137.188V131.46H609.102V130.182ZM615.382 140.205C617.376 140.205 618.834 139.207 619.294 137.724L617.836 137.315C617.453 138.338 616.564 138.849 615.382 138.849C613.611 138.849 612.39 137.705 612.32 135.602H619.447V134.963C619.447 131.307 617.274 130.054 615.229 130.054C612.569 130.054 610.805 132.151 610.805 135.168C610.805 138.185 612.544 140.205 615.382 140.205ZM612.32 134.298C612.422 132.771 613.503 131.409 615.229 131.409C616.865 131.409 617.913 132.636 617.913 134.298H612.32ZM628.697 132.381C628.224 130.987 627.162 130.054 625.219 130.054C623.148 130.054 621.614 131.23 621.614 132.892C621.614 134.247 622.42 135.155 624.222 135.577L625.858 135.96C626.849 136.19 627.316 136.663 627.316 137.341C627.316 138.185 626.421 138.875 625.015 138.875C623.781 138.875 623.008 138.344 622.739 137.29L621.307 137.648C621.659 139.316 623.033 140.205 625.04 140.205C627.322 140.205 628.876 138.958 628.876 137.264C628.876 135.896 628.019 135.033 626.268 134.605L624.81 134.247C623.647 133.96 623.123 133.57 623.123 132.815C623.123 131.972 624.018 131.358 625.219 131.358C626.536 131.358 627.079 132.087 627.341 132.764L628.697 132.381ZM633.396 138.21H631.76L631.683 138.926C631.498 140.658 631.134 142.384 630.967 143.196H632.118C632.425 142.327 633.077 140.358 633.294 138.901L633.396 138.21ZM644.143 140.23C645.856 140.23 646.751 139.31 647.058 138.67H647.134V140H648.643V133.531C648.643 130.412 646.265 130.054 645.012 130.054C643.529 130.054 641.842 130.565 641.075 132.355L642.507 132.866C642.839 132.151 643.625 131.384 645.063 131.384C646.45 131.384 647.134 132.119 647.134 133.378V133.429C647.134 134.158 646.393 134.094 644.603 134.324C642.781 134.56 640.794 134.963 640.794 137.213C640.794 139.131 642.276 140.23 644.143 140.23ZM644.373 138.875C643.171 138.875 642.302 138.338 642.302 137.29C642.302 136.139 643.35 135.781 644.526 135.628C645.166 135.551 646.879 135.372 647.134 135.065V136.446C647.134 137.673 646.163 138.875 644.373 138.875ZM659.073 130.182H657.437L654.727 138.006H654.624L651.914 130.182H650.278L653.908 140H655.442L659.073 130.182ZM664.829 140.205C666.824 140.205 668.281 139.207 668.741 137.724L667.284 137.315C666.9 138.338 666.012 138.849 664.829 138.849C663.059 138.849 661.838 137.705 661.767 135.602H668.895V134.963C668.895 131.307 666.721 130.054 664.676 130.054C662.017 130.054 660.252 132.151 660.252 135.168C660.252 138.185 661.991 140.205 664.829 140.205ZM661.767 134.298C661.87 132.771 662.95 131.409 664.676 131.409C666.312 131.409 667.36 132.636 667.36 134.298H661.767ZM671.189 140H672.698V133.787C672.698 132.457 673.746 131.486 675.178 131.486C675.581 131.486 675.996 131.562 676.098 131.588V130.054C675.926 130.041 675.529 130.028 675.306 130.028C674.13 130.028 673.107 130.693 672.749 131.665H672.647V130.182H671.189V140ZM680.776 140.23C682.489 140.23 683.384 139.31 683.691 138.67H683.767V140H685.276V133.531C685.276 130.412 682.898 130.054 681.645 130.054C680.162 130.054 678.475 130.565 677.708 132.355L679.139 132.866C679.472 132.151 680.258 131.384 681.696 131.384C683.083 131.384 683.767 132.119 683.767 133.378V133.429C683.767 134.158 683.026 134.094 681.236 134.324C679.414 134.56 677.426 134.963 677.426 137.213C677.426 139.131 678.909 140.23 680.776 140.23ZM681.006 138.875C679.804 138.875 678.935 138.338 678.935 137.29C678.935 136.139 679.983 135.781 681.159 135.628C681.798 135.551 683.512 135.372 683.767 135.065V136.446C683.767 137.673 682.796 138.875 681.006 138.875ZM691.992 143.886C694.344 143.886 696.237 142.812 696.237 140.281V130.182H694.779V131.741H694.626C694.293 131.23 693.68 130.054 691.762 130.054C689.282 130.054 687.569 132.023 687.569 135.04C687.569 138.108 689.359 139.847 691.737 139.847C693.654 139.847 694.268 138.722 694.6 138.185H694.728V140.179C694.728 141.815 693.577 142.557 691.992 142.557C690.209 142.557 689.582 141.617 689.18 141.074L687.978 141.918C688.592 142.947 689.8 143.886 691.992 143.886ZM691.941 138.491C690.049 138.491 689.077 137.06 689.077 135.014C689.077 133.02 690.023 131.409 691.941 131.409C693.782 131.409 694.754 132.892 694.754 135.014C694.754 137.188 693.756 138.491 691.941 138.491ZM703.114 140.205C705.109 140.205 706.566 139.207 707.026 137.724L705.569 137.315C705.185 138.338 704.297 138.849 703.114 138.849C701.344 138.849 700.123 137.705 700.053 135.602H707.18V134.963C707.18 131.307 705.006 130.054 702.961 130.054C700.302 130.054 698.538 132.151 698.538 135.168C698.538 138.185 700.276 140.205 703.114 140.205ZM700.053 134.298C700.155 132.771 701.235 131.409 702.961 131.409C704.597 131.409 705.646 132.636 705.646 134.298H700.053ZM714.511 140H722.77V138.594H716.685V138.491L719.625 135.347C721.875 132.937 722.54 131.812 722.54 130.361C722.54 128.341 720.903 126.73 718.602 126.73C716.308 126.73 714.562 128.29 714.562 130.591H716.071C716.071 129.102 717.036 128.111 718.551 128.111C719.97 128.111 721.057 128.98 721.057 130.361C721.057 131.569 720.347 132.464 718.832 134.119L714.511 138.849V140ZM495.61 166H497.119V156.182H495.61V166ZM496.377 154.545C496.965 154.545 497.451 154.085 497.451 153.523C497.451 152.96 496.965 152.5 496.377 152.5C495.789 152.5 495.303 152.96 495.303 153.523C495.303 154.085 495.789 154.545 496.377 154.545ZM501.39 160.094C501.39 158.381 502.451 157.409 503.896 157.409C505.296 157.409 506.146 158.323 506.146 159.864V166H507.654V159.761C507.654 157.256 506.318 156.054 504.331 156.054C502.848 156.054 501.927 156.719 501.467 157.716H501.339V156.182H499.882V166H501.39V160.094ZM514.681 156.182H512.584V153.83H511.076V156.182H509.593V157.46H511.076V163.597C511.076 165.31 512.456 166.128 513.735 166.128C514.297 166.128 514.655 166.026 514.86 165.949L514.553 164.594C514.425 164.619 514.221 164.67 513.888 164.67C513.223 164.67 512.584 164.466 512.584 163.188V157.46H514.681V156.182ZM520.961 166.205C522.955 166.205 524.413 165.207 524.873 163.724L523.416 163.315C523.032 164.338 522.144 164.849 520.961 164.849C519.19 164.849 517.97 163.705 517.899 161.602H525.026V160.963C525.026 157.307 522.853 156.054 520.808 156.054C518.149 156.054 516.384 158.151 516.384 161.168C516.384 164.185 518.123 166.205 520.961 166.205ZM517.899 160.298C518.002 158.771 519.082 157.409 520.808 157.409C522.444 157.409 523.492 158.636 523.492 160.298H517.899ZM527.321 166H528.83V159.787C528.83 158.457 529.878 157.486 531.31 157.486C531.712 157.486 532.128 157.562 532.23 157.588V156.054C532.058 156.041 531.661 156.028 531.438 156.028C530.261 156.028 529.239 156.693 528.881 157.665H528.778V156.182H527.321V166ZM542.346 156.182H540.709L537.999 164.006H537.897L535.187 156.182H533.55L537.181 166H538.715L542.346 156.182ZM544.337 166H545.845V156.182H544.337V166ZM545.104 154.545C545.692 154.545 546.178 154.085 546.178 153.523C546.178 152.96 545.692 152.5 545.104 152.5C544.516 152.5 544.03 152.96 544.03 153.523C544.03 154.085 544.516 154.545 545.104 154.545ZM552.725 166.205C554.719 166.205 556.176 165.207 556.637 163.724L555.179 163.315C554.796 164.338 553.907 164.849 552.725 164.849C550.954 164.849 549.733 163.705 549.663 161.602H556.79V160.963C556.79 157.307 554.617 156.054 552.571 156.054C549.912 156.054 548.148 158.151 548.148 161.168C548.148 164.185 549.887 166.205 552.725 166.205ZM549.663 160.298C549.765 158.771 550.845 157.409 552.571 157.409C554.208 157.409 555.256 158.636 555.256 160.298H549.663ZM561.309 166H562.792L564.94 158.457H565.093L567.241 166H568.724L571.715 156.182H570.13L568.008 163.673H567.906L565.835 156.182H564.224L562.127 163.699H562.025L559.903 156.182H558.318L561.309 166ZM580.664 158.381C580.191 156.987 579.13 156.054 577.187 156.054C575.116 156.054 573.582 157.23 573.582 158.892C573.582 160.247 574.387 161.155 576.19 161.577L577.826 161.96C578.817 162.19 579.284 162.663 579.284 163.341C579.284 164.185 578.389 164.875 576.983 164.875C575.749 164.875 574.975 164.344 574.707 163.29L573.275 163.648C573.627 165.316 575.001 166.205 577.008 166.205C579.29 166.205 580.843 164.958 580.843 163.264C580.843 161.896 579.987 161.033 578.235 160.605L576.778 160.247C575.615 159.96 575.09 159.57 575.09 158.815C575.09 157.972 575.985 157.358 577.187 157.358C578.504 157.358 579.047 158.087 579.309 158.764L580.664 158.381ZM592.446 156.182H590.35V153.83H588.841V156.182H587.358V157.46H588.841V163.597C588.841 165.31 590.222 166.128 591.5 166.128C592.063 166.128 592.421 166.026 592.625 165.949L592.319 164.594C592.191 164.619 591.986 164.67 591.654 164.67C590.989 164.67 590.35 164.466 590.35 163.188V157.46H592.446V156.182ZM598.599 166.205C601.258 166.205 603.048 164.185 603.048 161.142C603.048 158.074 601.258 156.054 598.599 156.054C595.94 156.054 594.15 158.074 594.15 161.142C594.15 164.185 595.94 166.205 598.599 166.205ZM598.599 164.849C596.579 164.849 595.658 163.111 595.658 161.142C595.658 159.173 596.579 157.409 598.599 157.409C600.619 157.409 601.539 159.173 601.539 161.142C601.539 163.111 600.619 164.849 598.599 164.849ZM611.921 160.094C611.921 158.381 613.014 157.409 614.504 157.409C615.923 157.409 616.779 158.304 616.779 159.864V166H618.288V159.761C618.288 157.237 616.946 156.054 614.938 156.054C613.392 156.054 612.509 156.7 612.049 157.716H611.921V152.909H610.413V166H611.921V160.094ZM621.048 166H622.556V156.182H621.048V166ZM621.815 154.545C622.403 154.545 622.889 154.085 622.889 153.523C622.889 152.96 622.403 152.5 621.815 152.5C621.227 152.5 620.741 152.96 620.741 153.523C620.741 154.085 621.227 154.545 621.815 154.545ZM625.319 166H626.828V159.787C626.828 158.457 627.876 157.486 629.308 157.486C629.71 157.486 630.126 157.562 630.228 157.588V156.054C630.056 156.041 629.659 156.028 629.436 156.028C628.259 156.028 627.237 156.693 626.879 157.665H626.777V156.182H625.319V166ZM635.834 166.205C637.828 166.205 639.286 165.207 639.746 163.724L638.289 163.315C637.905 164.338 637.017 164.849 635.834 164.849C634.063 164.849 632.843 163.705 632.772 161.602H639.899V160.963C639.899 157.307 637.726 156.054 635.681 156.054C633.022 156.054 631.257 158.151 631.257 161.168C631.257 164.185 632.996 166.205 635.834 166.205ZM632.772 160.298C632.875 158.771 633.955 157.409 635.681 157.409C637.317 157.409 638.365 158.636 638.365 160.298H632.772ZM643.294 166.102C643.926 166.102 644.444 165.585 644.444 164.952C644.444 164.319 643.926 163.801 643.294 163.801C642.661 163.801 642.143 164.319 642.143 164.952C642.143 165.585 642.661 166.102 643.294 166.102Z" fill="#747474"/>
<circle cx="570" cy="35" r="34.5" stroke="#00ABFF"/>
<path d="M563.041 43H574.053V41.125H565.939V40.9886L569.859 36.7955C572.859 33.5824 573.746 32.0824 573.746 30.1477C573.746 27.4545 571.564 25.3068 568.496 25.3068C565.436 25.3068 563.109 27.3864 563.109 30.4545H565.121C565.121 28.4688 566.408 27.1477 568.428 27.1477C570.32 27.1477 571.768 28.3068 571.768 30.1477C571.768 31.7585 570.822 32.9517 568.803 35.1591L563.041 41.4659V43Z" fill="#00ABFF"/>
<path d="M942.643 107H940.435V89.816H942.643V97.184H951.235V89.816H953.443V107H951.235V99.248H942.643V107ZM959.36 91.184C959.36 91.616 959.208 91.984 958.904 92.288C958.6 92.592 958.232 92.744 957.8 92.744C957.368 92.744 957 92.592 956.696 92.288C956.392 91.984 956.24 91.616 956.24 91.184C956.24 90.752 956.392 90.384 956.696 90.08C957 89.776 957.368 89.624 957.8 89.624C958.232 89.624 958.6 89.776 958.904 90.08C959.208 90.384 959.36 90.752 959.36 91.184ZM958.904 95.24V107H956.696V95.24H958.904ZM963.986 107H961.778V95.24H963.89V97.16H963.986C964.21 96.536 964.666 96.008 965.354 95.576C966.058 95.128 966.746 94.904 967.418 94.904C968.058 94.904 968.602 95 969.05 95.192L968.378 97.328C968.106 97.216 967.674 97.16 967.082 97.16C966.25 97.16 965.522 97.496 964.898 98.168C964.29 98.84 963.986 99.624 963.986 100.52V107ZM975.05 107.384C973.322 107.384 971.898 106.792 970.778 105.608C969.658 104.424 969.098 102.928 969.098 101.12C969.098 99.328 969.642 97.84 970.73 96.656C971.818 95.456 973.21 94.856 974.906 94.856C976.65 94.856 978.034 95.424 979.058 96.56C980.098 97.68 980.618 99.256 980.618 101.288L980.594 101.528H971.354C971.386 102.68 971.77 103.608 972.506 104.312C973.242 105.016 974.122 105.368 975.146 105.368C976.554 105.368 977.658 104.664 978.458 103.256L980.426 104.216C979.898 105.208 979.162 105.984 978.218 106.544C977.29 107.104 976.234 107.384 975.05 107.384ZM971.522 99.704H978.266C978.202 98.888 977.866 98.216 977.258 97.688C976.666 97.144 975.866 96.872 974.858 96.872C974.026 96.872 973.306 97.128 972.698 97.64C972.106 98.152 971.714 98.84 971.522 99.704Z" fill="#0B132A"/>
<path d="M825.047 126.909L829.777 134.605V140H831.362V134.605L836.093 126.909H834.277L830.647 133.02H830.493L826.862 126.909H825.047ZM840.538 140.205C843.197 140.205 844.987 138.185 844.987 135.142C844.987 132.074 843.197 130.054 840.538 130.054C837.879 130.054 836.089 132.074 836.089 135.142C836.089 138.185 837.879 140.205 840.538 140.205ZM840.538 138.849C838.518 138.849 837.598 137.111 837.598 135.142C837.598 133.173 838.518 131.409 840.538 131.409C842.558 131.409 843.479 133.173 843.479 135.142C843.479 137.111 842.558 138.849 840.538 138.849ZM853.477 135.986C853.477 137.827 852.071 138.67 850.946 138.67C849.693 138.67 848.798 137.75 848.798 136.318V130.182H847.29V136.42C847.29 138.926 848.619 140.128 850.46 140.128C851.943 140.128 852.915 139.335 853.375 138.338H853.477V140H854.986V130.182H853.477V135.986ZM866.8 140.205C868.973 140.205 870.405 138.875 870.661 137.136H869.152C868.871 138.21 867.976 138.849 866.8 138.849C865.01 138.849 863.86 137.366 863.86 135.091C863.86 132.866 865.036 131.409 866.8 131.409C868.13 131.409 868.922 132.227 869.152 133.122H870.661C870.405 131.281 868.845 130.054 866.774 130.054C864.115 130.054 862.351 132.151 862.351 135.142C862.351 138.082 864.039 140.205 866.8 140.205ZM874.375 134.094C874.375 132.381 875.468 131.409 876.957 131.409C878.376 131.409 879.233 132.304 879.233 133.864V140H880.741V133.761C880.741 131.237 879.399 130.054 877.392 130.054C875.845 130.054 874.963 130.7 874.502 131.716H874.375V126.909H872.866V140H874.375V134.094ZM887.489 140.205C890.149 140.205 891.938 138.185 891.938 135.142C891.938 132.074 890.149 130.054 887.489 130.054C884.83 130.054 883.041 132.074 883.041 135.142C883.041 138.185 884.83 140.205 887.489 140.205ZM887.489 138.849C885.47 138.849 884.549 137.111 884.549 135.142C884.549 133.173 885.47 131.409 887.489 131.409C889.509 131.409 890.43 133.173 890.43 135.142C890.43 137.111 889.509 138.849 887.489 138.849ZM898.23 140.205C900.889 140.205 902.679 138.185 902.679 135.142C902.679 132.074 900.889 130.054 898.23 130.054C895.571 130.054 893.781 132.074 893.781 135.142C893.781 138.185 895.571 140.205 898.23 140.205ZM898.23 138.849C896.21 138.849 895.289 137.111 895.289 135.142C895.289 133.173 896.21 131.409 898.23 131.409C900.25 131.409 901.17 133.173 901.17 135.142C901.17 137.111 900.25 138.849 898.23 138.849ZM911.936 132.381C911.463 130.987 910.402 130.054 908.459 130.054C906.388 130.054 904.853 131.23 904.853 132.892C904.853 134.247 905.659 135.155 907.461 135.577L909.098 135.96C910.089 136.19 910.555 136.663 910.555 137.341C910.555 138.185 909.66 138.875 908.254 138.875C907.02 138.875 906.247 138.344 905.978 137.29L904.547 137.648C904.898 139.316 906.272 140.205 908.28 140.205C910.562 140.205 912.115 138.958 912.115 137.264C912.115 135.896 911.258 135.033 909.507 134.605L908.049 134.247C906.886 133.96 906.362 133.57 906.362 132.815C906.362 131.972 907.257 131.358 908.459 131.358C909.775 131.358 910.319 132.087 910.581 132.764L911.936 132.381ZM918.502 140.205C920.496 140.205 921.954 139.207 922.414 137.724L920.957 137.315C920.573 138.338 919.685 138.849 918.502 138.849C916.731 138.849 915.511 137.705 915.44 135.602H922.567V134.963C922.567 131.307 920.394 130.054 918.349 130.054C915.69 130.054 913.925 132.151 913.925 135.168C913.925 138.185 915.664 140.205 918.502 140.205ZM915.44 134.298C915.543 132.771 916.623 131.409 918.349 131.409C919.985 131.409 921.033 132.636 921.033 134.298H915.44ZM932.149 140H933.632L935.78 132.457H935.933L938.081 140H939.564L942.555 130.182H940.97L938.848 137.673H938.746L936.675 130.182H935.064L932.967 137.699H932.865L930.743 130.182H929.158L932.149 140ZM946.058 134.094C946.058 132.381 947.151 131.409 948.641 131.409C950.06 131.409 950.916 132.304 950.916 133.864V140H952.425V133.761C952.425 131.237 951.082 130.054 949.075 130.054C947.528 130.054 946.646 130.7 946.186 131.716H946.058V126.909H944.55V140H946.058V134.094ZM959.173 140.205C961.832 140.205 963.622 138.185 963.622 135.142C963.622 132.074 961.832 130.054 959.173 130.054C956.514 130.054 954.724 132.074 954.724 135.142C954.724 138.185 956.514 140.205 959.173 140.205ZM959.173 138.849C957.153 138.849 956.233 137.111 956.233 135.142C956.233 133.173 957.153 131.409 959.173 131.409C961.193 131.409 962.113 133.173 962.113 135.142C962.113 137.111 961.193 138.849 959.173 138.849ZM975.257 130.182H973.16V127.83H971.652V130.182H970.169V131.46H971.652V137.597C971.652 139.31 973.033 140.128 974.311 140.128C974.873 140.128 975.231 140.026 975.436 139.949L975.129 138.594C975.001 138.619 974.797 138.67 974.464 138.67C973.8 138.67 973.16 138.466 973.16 137.188V131.46H975.257V130.182ZM981.409 140.205C984.068 140.205 985.858 138.185 985.858 135.142C985.858 132.074 984.068 130.054 981.409 130.054C978.75 130.054 976.96 132.074 976.96 135.142C976.96 138.185 978.75 140.205 981.409 140.205ZM981.409 138.849C979.389 138.849 978.469 137.111 978.469 135.142C978.469 133.173 979.389 131.409 981.409 131.409C983.429 131.409 984.35 133.173 984.35 135.142C984.35 137.111 983.429 138.849 981.409 138.849ZM994.732 134.094C994.732 132.381 995.825 131.409 997.314 131.409C998.733 131.409 999.59 132.304 999.59 133.864V140H1001.1V133.761C1001.1 131.237 999.756 130.054 997.749 130.054C996.202 130.054 995.32 130.7 994.86 131.716H994.732V126.909H993.223V140H994.732V134.094ZM1003.86 140H1005.37V130.182H1003.86V140ZM1004.63 128.545C1005.21 128.545 1005.7 128.085 1005.7 127.523C1005.7 126.96 1005.21 126.5 1004.63 126.5C1004.04 126.5 1003.55 126.96 1003.55 127.523C1003.55 128.085 1004.04 128.545 1004.63 128.545ZM1008.13 140H1009.64V133.787C1009.64 132.457 1010.69 131.486 1012.12 131.486C1012.52 131.486 1012.94 131.562 1013.04 131.588V130.054C1012.87 130.041 1012.47 130.028 1012.25 130.028C1011.07 130.028 1010.05 130.693 1009.69 131.665H1009.59V130.182H1008.13V140ZM1018.64 140.205C1020.64 140.205 1022.1 139.207 1022.56 137.724L1021.1 137.315C1020.72 138.338 1019.83 138.849 1018.64 138.849C1016.87 138.849 1015.65 137.705 1015.58 135.602H1022.71V134.963C1022.71 131.307 1020.54 130.054 1018.49 130.054C1015.83 130.054 1014.07 132.151 1014.07 135.168C1014.07 138.185 1015.81 140.205 1018.64 140.205ZM1015.58 134.298C1015.69 132.771 1016.77 131.409 1018.49 131.409C1020.13 131.409 1021.18 132.636 1021.18 134.298H1015.58ZM1027.25 138.21H1025.62L1025.54 138.926C1025.36 140.658 1024.99 142.384 1024.83 143.196H1025.98C1026.28 142.327 1026.94 140.358 1027.15 138.901L1027.25 138.21ZM1038 140.23C1039.71 140.23 1040.61 139.31 1040.92 138.67H1040.99V140H1042.5V133.531C1042.5 130.412 1040.12 130.054 1038.87 130.054C1037.39 130.054 1035.7 130.565 1034.93 132.355L1036.36 132.866C1036.7 132.151 1037.48 131.384 1038.92 131.384C1040.31 131.384 1040.99 132.119 1040.99 133.378V133.429C1040.99 134.158 1040.25 134.094 1038.46 134.324C1036.64 134.56 1034.65 134.963 1034.65 137.213C1034.65 139.131 1036.13 140.23 1038 140.23ZM1038.23 138.875C1037.03 138.875 1036.16 138.338 1036.16 137.29C1036.16 136.139 1037.21 135.781 1038.38 135.628C1039.02 135.551 1040.74 135.372 1040.99 135.065V136.446C1040.99 137.673 1040.02 138.875 1038.23 138.875ZM1046.76 134.094C1046.76 132.381 1047.82 131.409 1049.27 131.409C1050.67 131.409 1051.52 132.323 1051.52 133.864V140H1053.03V133.761C1053.03 131.256 1051.69 130.054 1049.7 130.054C1048.22 130.054 1047.3 130.719 1046.84 131.716H1046.71V130.182H1045.25V140H1046.76V134.094ZM1059.49 140.205C1061.38 140.205 1062.02 139.028 1062.36 138.491H1062.53V140H1063.99V126.909H1062.48V131.741H1062.36C1062.02 131.23 1061.43 130.054 1059.52 130.054C1057.04 130.054 1055.32 132.023 1055.32 135.116C1055.32 138.236 1057.04 140.205 1059.49 140.205ZM1059.7 138.849C1057.8 138.849 1056.83 137.188 1056.83 135.091C1056.83 133.02 1057.78 131.409 1059.7 131.409C1061.54 131.409 1062.51 132.892 1062.51 135.091C1062.51 137.315 1061.51 138.849 1059.7 138.849ZM1074.25 140H1075.73L1077.88 132.457H1078.03L1080.18 140H1081.67L1084.66 130.182H1083.07L1080.95 137.673H1080.85L1078.78 130.182H1077.17L1075.07 137.699H1074.97L1072.84 130.182H1071.26L1074.25 140ZM1090.43 140.205C1092.43 140.205 1093.89 139.207 1094.35 137.724L1092.89 137.315C1092.5 138.338 1091.62 138.849 1090.43 138.849C1088.66 138.849 1087.44 137.705 1087.37 135.602H1094.5V134.963C1094.5 131.307 1092.33 130.054 1090.28 130.054C1087.62 130.054 1085.86 132.151 1085.86 135.168C1085.86 138.185 1087.6 140.205 1090.43 140.205ZM1087.37 134.298C1087.47 132.771 1088.55 131.409 1090.28 131.409C1091.92 131.409 1092.96 132.636 1092.96 134.298H1087.37ZM855.46 160.094C855.46 158.381 856.554 157.409 858.043 157.409C859.462 157.409 860.318 158.304 860.318 159.864V166H861.827V159.761C861.827 157.237 860.485 156.054 858.478 156.054C856.931 156.054 856.049 156.7 855.588 157.716H855.46V152.909H853.952V166H855.46V160.094ZM867.476 166.23C869.189 166.23 870.084 165.31 870.391 164.67H870.467V166H871.976V159.531C871.976 156.412 869.598 156.054 868.345 156.054C866.862 156.054 865.175 156.565 864.408 158.355L865.84 158.866C866.172 158.151 866.958 157.384 868.396 157.384C869.783 157.384 870.467 158.119 870.467 159.378V159.429C870.467 160.158 869.726 160.094 867.936 160.324C866.114 160.56 864.127 160.963 864.127 163.213C864.127 165.131 865.609 166.23 867.476 166.23ZM867.706 164.875C866.504 164.875 865.635 164.338 865.635 163.29C865.635 162.139 866.683 161.781 867.859 161.628C868.499 161.551 870.212 161.372 870.467 161.065V162.446C870.467 163.673 869.496 164.875 867.706 164.875ZM876.238 160.094C876.238 158.381 877.299 157.409 878.744 157.409C880.143 157.409 880.994 158.323 880.994 159.864V166H882.502V159.761C882.502 157.256 881.166 156.054 879.178 156.054C877.695 156.054 876.775 156.719 876.315 157.716H876.187V156.182H874.729V166H876.238V160.094ZM888.966 166.205C890.858 166.205 891.497 165.028 891.83 164.491H892.009V166H893.466V152.909H891.957V157.741H891.83C891.497 157.23 890.909 156.054 888.992 156.054C886.511 156.054 884.798 158.023 884.798 161.116C884.798 164.236 886.511 166.205 888.966 166.205ZM889.171 164.849C887.278 164.849 886.307 163.188 886.307 161.091C886.307 159.02 887.253 157.409 889.171 157.409C891.011 157.409 891.983 158.892 891.983 161.091C891.983 163.315 890.986 164.849 889.171 164.849ZM897.947 152.909H896.438V166H897.947V152.909ZM904.826 166.205C906.821 166.205 908.278 165.207 908.738 163.724L907.281 163.315C906.897 164.338 906.009 164.849 904.826 164.849C903.056 164.849 901.835 163.705 901.764 161.602H908.892V160.963C908.892 157.307 906.718 156.054 904.673 156.054C902.014 156.054 900.25 158.151 900.25 161.168C900.25 164.185 901.988 166.205 904.826 166.205ZM901.764 160.298C901.867 158.771 902.947 157.409 904.673 157.409C906.309 157.409 907.358 158.636 907.358 160.298H901.764ZM919.138 166.23C920.851 166.23 921.746 165.31 922.053 164.67H922.13V166H923.638V159.531C923.638 156.412 921.26 156.054 920.007 156.054C918.524 156.054 916.837 156.565 916.07 158.355L917.502 158.866C917.834 158.151 918.62 157.384 920.059 157.384C921.446 157.384 922.13 158.119 922.13 159.378V159.429C922.13 160.158 921.388 160.094 919.598 160.324C917.777 160.56 915.789 160.963 915.789 163.213C915.789 165.131 917.272 166.23 919.138 166.23ZM919.368 164.875C918.166 164.875 917.297 164.338 917.297 163.29C917.297 162.139 918.345 161.781 919.522 161.628C920.161 161.551 921.874 161.372 922.13 161.065V162.446C922.13 163.673 921.158 164.875 919.368 164.875ZM927.9 152.909H926.391V166H927.9V152.909ZM932.171 152.909H930.663V166H932.171V152.909ZM944.267 156.182H942.17V153.83H940.662V156.182H939.179V157.46H940.662V163.597C940.662 165.31 942.042 166.128 943.321 166.128C943.883 166.128 944.241 166.026 944.446 165.949L944.139 164.594C944.011 164.619 943.807 164.67 943.474 164.67C942.809 164.67 942.17 164.466 942.17 163.188V157.46H944.267V156.182ZM948.255 160.094C948.255 158.381 949.348 157.409 950.838 157.409C952.257 157.409 953.113 158.304 953.113 159.864V166H954.622V159.761C954.622 157.237 953.28 156.054 951.272 156.054C949.726 156.054 948.843 156.7 948.383 157.716H948.255V152.909H946.747V166H948.255V160.094ZM961.498 166.205C963.492 166.205 964.95 165.207 965.41 163.724L963.953 163.315C963.569 164.338 962.681 164.849 961.498 164.849C959.728 164.849 958.507 163.705 958.436 161.602H965.563V160.963C965.563 157.307 963.39 156.054 961.345 156.054C958.686 156.054 956.921 158.151 956.921 161.168C956.921 164.185 958.66 166.205 961.498 166.205ZM958.436 160.298C958.539 158.771 959.619 157.409 961.345 157.409C962.981 157.409 964.029 158.636 964.029 160.298H958.436ZM972.921 169.682H974.429V164.491H974.557C974.889 165.028 975.529 166.205 977.421 166.205C979.875 166.205 981.588 164.236 981.588 161.116C981.588 158.023 979.875 156.054 977.395 156.054C975.478 156.054 974.889 157.23 974.557 157.741H974.378V156.182H972.921V169.682ZM974.404 161.091C974.404 158.892 975.375 157.409 977.216 157.409C979.134 157.409 980.08 159.02 980.08 161.091C980.08 163.188 979.108 164.849 977.216 164.849C975.401 164.849 974.404 163.315 974.404 161.091ZM986.779 166.23C988.492 166.23 989.387 165.31 989.693 164.67H989.77V166H991.279V159.531C991.279 156.412 988.901 156.054 987.648 156.054C986.165 156.054 984.478 156.565 983.71 158.355L985.142 158.866C985.475 158.151 986.261 157.384 987.699 157.384C989.086 157.384 989.77 158.119 989.77 159.378V159.429C989.77 160.158 989.029 160.094 987.239 160.324C985.417 160.56 983.429 160.963 983.429 163.213C983.429 165.131 984.912 166.23 986.779 166.23ZM987.009 164.875C985.807 164.875 984.938 164.338 984.938 163.29C984.938 162.139 985.986 161.781 987.162 161.628C987.801 161.551 989.514 161.372 989.77 161.065V162.446C989.77 163.673 988.799 164.875 987.009 164.875ZM994.032 169.682H995.541V164.491H995.668C996.001 165.028 996.64 166.205 998.532 166.205C1000.99 166.205 1002.7 164.236 1002.7 161.116C1002.7 158.023 1000.99 156.054 998.506 156.054C996.589 156.054 996.001 157.23 995.668 157.741H995.489V156.182H994.032V169.682ZM995.515 161.091C995.515 158.892 996.487 157.409 998.328 157.409C1000.25 157.409 1001.19 159.02 1001.19 161.091C1001.19 163.188 1000.22 164.849 998.328 164.849C996.512 164.849 995.515 163.315 995.515 161.091ZM1009.12 166.205C1011.11 166.205 1012.57 165.207 1013.03 163.724L1011.57 163.315C1011.19 164.338 1010.3 164.849 1009.12 164.849C1007.35 164.849 1006.13 163.705 1006.06 161.602H1013.18V160.963C1013.18 157.307 1011.01 156.054 1008.96 156.054C1006.3 156.054 1004.54 158.151 1004.54 161.168C1004.54 164.185 1006.28 166.205 1009.12 166.205ZM1006.06 160.298C1006.16 158.771 1007.24 157.409 1008.96 157.409C1010.6 157.409 1011.65 158.636 1011.65 160.298H1006.06ZM1015.48 166H1016.99V159.787C1016.99 158.457 1018.03 157.486 1019.47 157.486C1019.87 157.486 1020.28 157.562 1020.39 157.588V156.054C1020.21 156.041 1019.82 156.028 1019.59 156.028C1018.42 156.028 1017.39 156.693 1017.04 157.665H1016.93V156.182H1015.48V166ZM1024.56 166H1026.04L1028.19 158.457H1028.34L1030.49 166H1031.97L1034.96 156.182H1033.38L1031.26 163.673H1031.15L1029.08 156.182H1027.47L1025.38 163.699H1025.27L1023.15 156.182H1021.57L1024.56 166ZM1040.61 166.205C1043.27 166.205 1045.06 164.185 1045.06 161.142C1045.06 158.074 1043.27 156.054 1040.61 156.054C1037.95 156.054 1036.16 158.074 1036.16 161.142C1036.16 164.185 1037.95 166.205 1040.61 166.205ZM1040.61 164.849C1038.59 164.849 1037.67 163.111 1037.67 161.142C1037.67 159.173 1038.59 157.409 1040.61 157.409C1042.63 157.409 1043.55 159.173 1043.55 161.142C1043.55 163.111 1042.63 164.849 1040.61 164.849ZM1047.36 166H1048.87V159.787C1048.87 158.457 1049.92 157.486 1051.35 157.486C1051.76 157.486 1052.17 157.562 1052.27 157.588V156.054C1052.1 156.041 1051.7 156.028 1051.48 156.028C1050.3 156.028 1049.28 156.693 1048.92 157.665H1048.82V156.182H1047.36V166ZM1054.06 166H1055.57V162.325L1056.62 161.347L1060.3 166H1062.22L1057.76 160.375L1061.91 156.182H1060.04L1055.75 160.554H1055.57V152.909H1054.06V166ZM1064.95 166.102C1065.58 166.102 1066.1 165.585 1066.1 164.952C1066.1 164.319 1065.58 163.801 1064.95 163.801C1064.32 163.801 1063.8 164.319 1063.8 164.952C1063.8 165.585 1064.32 166.102 1064.95 166.102Z" fill="#747474"/>
<circle cx="960" cy="35" r="34.5" stroke="#00ABFF"/>
<path d="M958.064 43.2386C961.447 43.2386 963.962 41.1165 963.962 38.2614C963.962 36.0455 962.649 34.4347 960.45 34.0682V33.9318C962.214 33.3949 963.314 31.946 963.314 29.9773C963.314 27.5057 961.362 25.3068 958.132 25.3068C955.115 25.3068 952.609 27.1648 952.507 29.9091H954.553C954.629 28.1705 956.283 27.1477 958.098 27.1477C960.024 27.1477 961.268 28.3153 961.268 30.0795C961.268 31.9205 959.828 33.1136 957.757 33.1136H956.359V34.9886H957.757C960.408 34.9886 961.882 36.3352 961.882 38.2614C961.882 40.1108 960.271 41.3636 958.03 41.3636C956.01 41.3636 954.408 40.3239 954.28 38.6364H952.132C952.26 41.3807 954.68 43.2386 958.064 43.2386Z" fill="#00ABFF"/>
<line x1="0.5" y1="34.5" x2="124.5" y2="34.5" stroke="#CACACA" stroke-linecap="round"/>
<path d="M108.886 18.3857L125 34.4998L108.886 50.6138" stroke="#CACACA" stroke-linecap="round"/>
<line x1="1015.5" y1="34.5" x2="1139.5" y2="34.5" stroke="#CACACA" stroke-linecap="round"/>
<path d="M1123.89 18.3857L1140 34.4998L1123.89 50.6138" stroke="#CACACA" stroke-linecap="round"/>
<line x1="236.5" y1="34.5" x2="513.5" y2="34.5" stroke="#00ABFF" stroke-linecap="round"/>
<path d="M497.886 18.3857L514 34.4998L497.886 50.6138" stroke="#00ABFF" stroke-linecap="round"/>
<line x1="626.5" y1="34.5" x2="903.5" y2="34.5" stroke="#00ABFF" stroke-linecap="round"/>
<path d="M887.886 18.3857L904 34.4998L887.886 50.6138" stroke="#00ABFF" stroke-linecap="round"/>
</svg>
