<svg width="40" height="24" viewBox="0 0 40 24" fill="none" xmlns="http://www.w3.org/2000/svg">
<path fill-rule="evenodd" clip-rule="evenodd" d="M36.2715 0H3.71266C1.6517 0 -0.0160283 1.68433 0.000116234 3.72846V16.1567C0.000116234 18.2172 1.66831 19.8854 3.72881 19.8854H19.1498L26.1981 23.8102L24.5954 19.8854H36.2715C38.332 19.8854 40 18.2175 40 16.157V3.72846C40 1.66796 38.3318 0 36.2715 0ZM3.02583 2.87834C2.56779 2.91063 2.22437 3.07438 1.99558 3.38504C1.76656 3.67933 1.68468 4.0555 1.73381 4.48056C2.69879 10.6132 3.59804 14.7506 4.43225 16.8927C4.75906 17.6776 5.13523 18.0537 5.57689 18.0212C6.26373 17.9721 7.08133 17.0235 8.04608 15.1756C8.55302 14.129 9.3381 12.5593 10.4009 10.466C11.2842 13.5565 12.4941 15.8791 14.0149 17.4324C14.4402 17.8738 14.8817 18.0701 15.3067 18.0373C15.6831 18.0048 15.9774 17.8086 16.1735 17.4488C16.3372 17.1381 16.4025 16.7781 16.3697 16.3694C16.2717 14.8813 16.4189 12.8044 16.8278 10.139C17.2528 7.39165 17.7761 5.41279 18.4139 4.2354C18.5449 3.99023 18.5938 3.74484 18.5776 3.45054C18.5449 3.07438 18.3813 2.76371 18.0707 2.51831C17.7598 2.27315 17.4164 2.15852 17.0402 2.19127C16.566 2.22402 16.2062 2.45304 15.9608 2.91086C14.9472 4.75871 14.2276 7.75144 13.8025 11.905C13.181 10.335 12.6574 8.4874 12.249 6.31251C12.0691 5.34776 11.6274 4.88971 10.9078 4.93884C10.4172 4.97159 10.0083 5.29863 9.68152 5.91996L6.10021 12.7389C5.51139 10.368 4.95533 7.47353 4.44839 4.0555C4.334 3.20515 3.85981 2.81261 3.02583 2.87811V2.87834ZM34.5381 4.0555C35.6991 4.3009 36.5658 4.92223 37.1546 5.95248C37.678 6.83582 37.9395 7.89859 37.9395 9.17401C37.9395 10.8583 37.5144 12.3958 36.6641 13.8019C35.6827 15.4372 34.4073 16.255 32.821 16.255C32.5431 16.255 32.2488 16.2222 31.9379 16.1567C30.7769 15.9116 29.9101 15.2902 29.3213 14.26C28.7982 13.3605 28.5365 12.2811 28.5365 11.0219C28.5365 9.33776 28.9618 7.80034 29.8119 6.41053C30.8096 4.77532 32.085 3.95748 33.655 3.95748C33.9331 3.95748 34.2274 3.99023 34.5381 4.0555ZM33.8512 12.9027C34.4564 12.363 34.8651 11.5615 35.0941 10.4824C35.1596 10.1062 35.2085 9.69732 35.2085 9.27226C35.2085 8.79807 35.1105 8.29113 34.9142 7.78419C34.6688 7.14625 34.3418 6.80284 33.9493 6.72096C33.3607 6.60657 32.7882 6.93384 32.2488 7.73507C31.8071 8.3564 31.5292 9.01048 31.3821 9.68094C31.3002 10.0571 31.2674 10.466 31.2674 10.8749C31.2674 11.3491 31.3654 11.8561 31.5617 12.363C31.8071 13.0007 32.1342 13.3441 32.5267 13.426C32.9354 13.5077 33.3771 13.3278 33.8512 12.9025V12.9027ZM26.9015 5.95225C26.3127 4.922 25.4296 4.30067 24.2849 4.05527C23.974 3.99 23.68 3.95725 23.4016 3.95725C21.8319 3.95725 20.5565 4.77486 19.559 6.4103C18.7084 7.80011 18.2836 9.33753 18.2836 11.0219C18.2836 12.2811 18.5451 13.3603 19.0682 14.2598C19.657 15.29 20.5237 15.9113 21.6847 16.1565C21.9954 16.222 22.2897 16.2548 22.5681 16.2548C24.1542 16.2548 25.4296 15.4372 26.4107 13.8017C27.2613 12.3955 27.6861 10.8581 27.6861 9.17377C27.6861 7.89836 27.4246 6.83536 26.9015 5.95225ZM24.8408 10.4819C24.612 11.5613 24.2031 12.3628 23.5981 12.9022C23.1239 13.3275 22.6825 13.5074 22.2736 13.4258C21.881 13.3439 21.554 13.0005 21.3086 12.3625C21.1125 11.8558 21.0143 11.3489 21.0143 10.8747C21.0143 10.4658 21.047 10.0569 21.1289 9.68071C21.2761 9.01025 21.554 8.35617 21.9954 7.73484C22.5351 6.93361 23.1075 6.60634 23.6961 6.72096C24.0887 6.80261 24.4157 7.14602 24.6611 7.78396C24.8571 8.2909 24.9554 8.79784 24.9554 9.27203C24.9554 9.69709 24.9226 10.106 24.8408 10.4822V10.4819Z" fill="#4B4B4B"/>
</svg>
