<svg width="40" height="40" viewBox="0 0 40 40" fill="none" xmlns="http://www.w3.org/2000/svg">
<path d="M31.5825 19.1324C31.5825 17.0124 30.82 15.5449 30.1675 14.4024L29.9675 14.0774C29.175 12.8024 28.4825 11.6824 28.4825 10.3774C28.4825 8.80242 29.6775 7.33242 31.3625 7.33242C31.4125 7.33242 31.46 7.33742 31.5075 7.33992L31.585 7.34742C28.4254 4.44527 24.2901 2.83721 20 2.84242C17.1567 2.84096 14.3576 3.54698 11.8552 4.89685C9.35268 6.24672 7.22539 8.19802 5.66498 10.5749C6.06498 10.5874 6.44748 10.5974 6.76998 10.5974C8.56248 10.5974 11.34 10.3799 11.34 10.3799C12.265 10.3249 12.375 11.6824 11.45 11.7924C11.45 11.7924 10.5225 11.9024 9.48748 11.9549L15.7375 30.5399L19.4875 19.2749L16.8125 11.9524C15.89 11.8974 15.015 11.7899 15.015 11.7899C14.09 11.7349 14.2 10.3199 15.1225 10.3749C15.1225 10.3749 17.9575 10.5924 19.6425 10.5924C21.4375 10.5924 24.2175 10.3749 24.2175 10.3749C25.1425 10.3199 25.25 11.6799 24.325 11.7899C24.325 11.7899 23.395 11.8974 22.3625 11.9524L28.5625 30.3949L30.2725 24.6774L30.4075 24.2449C31.0825 22.0949 31.58 20.5074 31.58 19.1299L31.5825 19.1324ZM2.84248 19.9999C2.84231 23.2218 3.74918 26.3786 5.45931 29.1092C7.16943 31.8397 9.61373 34.0336 12.5125 35.4399L4.32498 13.0149C3.34456 15.2129 2.83937 17.5932 2.84248 19.9999Z" fill="black" fill-opacity="0.7"/>
<path d="M15.1525 36.4576L20.3025 21.5001L25.575 35.9501C25.61 36.0326 25.65 36.1101 25.6975 36.1851C22.2986 37.3825 18.6087 37.4779 15.1525 36.4576ZM35.0525 11.7676C35.1275 12.3151 35.17 12.9001 35.17 13.5326C35.17 15.2726 34.845 17.2301 33.865 19.6776L28.625 34.8276C32.4918 32.581 35.3281 28.9128 36.5292 24.6051C37.7304 20.2974 37.2014 15.6909 35.055 11.7676H35.0525Z" fill="black" fill-opacity="0.7"/>
<path fill-rule="evenodd" clip-rule="evenodd" d="M0 20C0 8.9725 8.9725 0 20 0C31.025 0 40 8.9725 40 20C40 31.0275 31.025 40 20 40C8.9725 40 0 31.0275 0 20ZM0.9175 20C0.9175 30.5225 9.4775 39.0825 20 39.0825C30.52 39.0825 39.08 30.5225 39.08 20C39.08 9.475 30.52 0.9175 20 0.9175C9.475 0.9175 0.9175 9.475 0.9175 20Z" fill="black" fill-opacity="0.7"/>
</svg>
